<?xml version="1.0" encoding="UTF-8"?>
<svg id="_레이어_1" data-name="레이어_1" xmlns="http://www.w3.org/2000/svg" version="1.1" viewBox="0 0 250 80">
  <!-- Generator: Adobe Illustrator 29.7.1, SVG Export Plug-In . SVG Version: 2.1.1 Build 8)  -->
  <defs>
    <style>
      .st0 {
        fill: #f6b785;
      }

      .st1 {
        fill: #f39a56;
      }

      .st2 {
        fill: #fff;
      }

      .st3 {
        fill: #eb6b06;
      }
    </style>
  </defs>
  <g>
    <path class="st0" d="M44,40.7c-.8-7.5,7-13.5,17.5-13.4,10.5,0,19.7,6.2,20.5,13.7.8,7.5-7,13.5-17.5,13.4-10.5,0-19.7-6.2-20.5-13.7M84,43.1c-.9-9.3-11.5-16.9-23.6-17-12.1,0-21.1,7.4-20.2,16.6.9,9.3,11.5,16.9,23.6,17,12.1,0,21.2-7.4,20.2-16.7"/>
    <path class="st1" d="M65.7,59.9c-6,6.2-15.5,6.7-21.4,1.2-5.8-5.6-5.7-15.2.2-21.4,6-6.2,15.5-6.7,21.4-1.2,5.8,5.6,5.7,15.2-.2,21.4M43.7,39.4c-6.9,7.2-7,18.4-.3,24.9,6.8,6.5,17.9,5.9,24.8-1.3,6.9-7.2,7-18.4.3-24.9-6.8-6.5-17.9-5.9-24.8,1.3"/>
    <path class="st3" d="M44.3,16.1c12.4-4.6,24.7,0,27.4,10.5,2.7,10.4-5.1,22.7-17.5,27.3-12.4,4.7-24.7,0-27.4-10.5-2.7-10.4,5.1-22.7,17.5-27.3M32.8,20.1c-12.9,10.2-16.1,24.9-7.3,33,8.8,8,26.4,6.3,39.3-3.9,12.9-10.2,16.1-24.9,7.3-33-8.8-8-26.4-6.3-39.3,3.9"/>
  </g>
  <g>
    <path class="st2" d="M113.6,28.4v23.1h-3.6v-12.2h-13.7v12.2h-3.6v-23.1h3.6v7.7h13.7v-7.7h3.6Z"/>
    <path class="st2" d="M122.3,51.5c-1.7,0-3-.5-4-1.4-1-.9-1.5-2.2-1.5-3.6v-1.2c0-1.5.5-2.7,1.5-3.7,1-1,2.3-1.4,4-1.4h9.4c0-1.9-1-2.9-3-2.9h-10.5v-3.1h10.4c2.2,0,3.8.6,5,1.7,1.2,1.1,1.7,2.6,1.7,4.6v6.1c0,1.6-.5,2.8-1.6,3.7-1,.8-2.3,1.2-4.1,1.2h-7.4ZM128.9,43.2h-5.7c-1.8,0-2.8.8-2.8,2.3v.6c0,1.5.9,2.3,2.8,2.3h5.7c1.9,0,2.8-.8,2.8-2.3v-.6c0-1.6-.9-2.3-2.8-2.3Z"/>
    <path class="st2" d="M145.9,34.2h3.6c2.2,0,4,.7,5.3,2,1.3,1.3,1.9,3.1,1.9,5.4v9.9h-3.6v-9.8c0-1.4-.3-2.5-.8-3.2-.7-.9-1.7-1.3-3-1.3h-3.1c-1.3,0-2.3.4-3,1.3-.5.7-.8,1.7-.8,3.2v9.8h-3.6v-9.9c0-2.3.6-4.1,1.9-5.4,1.3-1.3,3-2,5.3-2Z"/>
    <path class="st2" d="M173.3,49.2c-1.3,1.5-2.9,2.3-4.8,2.3h-2.2c-2,0-3.6-.6-4.8-1.9-1.1-1.2-1.7-2.9-1.7-5v-10.4h3.6v10.4c0,1.3.3,2.2.8,2.8.6.7,1.4,1,2.4,1h1.6c1,0,1.8-.3,2.5-1,.6-.6.8-1.5.8-2.8v-10.4h3.6v10.4c0,1.3.3,2.2.8,2.8.6.7,1.4,1,2.4,1h1.6c1,0,1.8-.3,2.5-1,.6-.6.8-1.5.8-2.8v-10.4h3.6v10.4c0,2.2-.6,3.8-1.7,5-1.2,1.3-2.8,1.9-4.8,1.9h-2.2c-1.9,0-3.4-.8-4.7-2.3Z"/>
    <path class="st2" d="M197.4,37.3c-1.3,0-2.3.4-3,1.3-.5.7-.8,1.7-.8,3.2v9.8h-3.6v-23.1h3.6v6.8c1-.7,2.2-1.1,3.6-1.1h3.6c2.2,0,4,.7,5.3,2,1.3,1.3,1.9,3.1,1.9,5.4v9.9h-3.6v-9.8c0-1.4-.3-2.5-.8-3.2-.7-.9-1.7-1.3-3-1.3h-3.1Z"/>
    <path class="st2" d="M216.5,51.5c-1.7,0-3-.5-4-1.4-1-.9-1.5-2.2-1.5-3.6v-1.2c0-1.5.5-2.7,1.5-3.7,1-1,2.3-1.4,4-1.4h9.4c0-1.9-1-2.9-3-2.9h-10.5v-3.1h10.4c2.2,0,3.8.6,5,1.7,1.2,1.1,1.7,2.6,1.7,4.6v6.1c0,1.6-.5,2.8-1.6,3.7-1,.8-2.3,1.2-4.1,1.2h-7.4ZM223.1,43.2h-5.7c-1.8,0-2.8.8-2.8,2.3v.6c0,1.5.9,2.3,2.8,2.3h5.7c1.9,0,2.8-.8,2.8-2.3v-.6c0-1.6-.9-2.3-2.8-2.3Z"/>
  </g>
</svg>